<svg xmlns="http://www.w3.org/2000/svg" viewBox="0 0 43.33 41.7"><defs><style>.cls-1{fill:none;stroke:#fff;stroke-miterlimit:10;stroke-width:0.5px;}.cls-2,.cls-3{fill:#fff;}.cls-3{fill-rule:evenodd;}</style></defs><g id="Layer_2" data-name="Layer 2"><g id="Layer_1-2" data-name="Layer 1"><path class="cls-1" d="M.44,41.36c.32.24.82.11,2.25-1.34A43.07,43.07,0,0,0,6.1,36C7,34.9,7.78,33.76,8.43,32.75a2.75,2.75,0,0,1-.58-.32c-.13-.1-.23-.19-.33-.28A2.11,2.11,0,0,1,7.37,32c-.08-.08-.15-.17-.23-.26a4.58,4.58,0,0,1-.33-.48c-.3.34-.63.7-1,1.09-.56.67-1.16,1.39-1.74,2.16a44.33,44.33,0,0,0-3,4.32c-1,1.76-1,2.28-.7,2.53Z"/><path class="cls-2" d="M7.58,27c1.14-1.47,6-2.66,6.22-2.71h0a.32.32,0,0,1,.31.14.32.32,0,0,1,0,.37,6.54,6.54,0,0,0-1.19,4.1,3.5,3.5,0,0,1-1,2.5,3.14,3.14,0,0,1-2.23,1,3,3,0,0,1-1-.14,1.74,1.74,0,0,1-.54-.29l0,0L8,31.68l-.13-.12a2.2,2.2,0,0,1-.2-.23,3.33,3.33,0,0,1-.36-.56A3.53,3.53,0,0,1,7.58,27Z"/><path class="cls-2" d="M12.84,19.87c.47.68.33,2.87.32,3h0a.15.15,0,0,1-.26.06,2.8,2.8,0,0,0-1.56-1,1.58,1.58,0,0,1-.92-.74,1.38,1.38,0,0,1-.11-1.07,1.21,1.21,0,0,1,.18-.38,1.07,1.07,0,0,1,.19-.18h0l.13-.08.07,0,.12-.05a1.47,1.47,0,0,1,.28-.08,1.54,1.54,0,0,1,1.55.63Z"/><path class="cls-3" d="M23.06,1.23a14.75,14.75,0,0,0,3.12.32,14.06,14.06,0,0,0,3.12-.32c-.24,2.32-1.72,3.47-3.12,3.48S23.3,3.55,23.06,1.23ZM29.89,0a.54.54,0,0,0-.28.08,13.53,13.53,0,0,1-3.45.39A13.61,13.61,0,0,1,22.67.06a.48.48,0,0,0-.2,0,.5.5,0,0,0-.24.06l-3.46,1.1A10.12,10.12,0,0,0,14.6,3.93l-5.4,5a.53.53,0,0,0,0,.74l4.28,5.24a.54.54,0,0,0,.8.06l2-1.87V30a.55.55,0,0,0,.55.54H35.56A.54.54,0,0,0,36.1,30V13.08l2,1.87a.55.55,0,0,0,.8,0l4.28-5.25a.54.54,0,0,0-.05-.74l-5.4-5a10.14,10.14,0,0,0-4.17-2.76L30.2.1a.57.57,0,0,0-.31-.1Zm-12,22.06c-.6.71-3,1.2-3.16,1.22h0a.18.18,0,0,1-.15-.08.17.17,0,0,1,0-.19,3.26,3.26,0,0,0,.68-2,1.76,1.76,0,0,1,.53-1.23A1.58,1.58,0,0,1,17,19.33a1.16,1.16,0,0,1,.47.09.89.89,0,0,1,.27.15h0l.12.11.06.07.1.12a1.56,1.56,0,0,1,.16.28,1.76,1.76,0,0,1-.23,1.9Zm2.23,2a1.56,1.56,0,0,1,1.38.95,1.73,1.73,0,0,1,.08.27l0,.13v.08a.71.71,0,0,1,0,.14v0a.88.88,0,0,1-.06.26,1.12,1.12,0,0,1-.21.36,1.42,1.42,0,0,1-.94.49,1.54,1.54,0,0,1-1.12-.37,2.79,2.79,0,0,0-1.71-.72.14.14,0,0,1-.13-.1.12.12,0,0,1,0-.14h0c.07-.06,1.81-1.38,2.62-1.36Z"/></g></g></svg>