<svg xmlns="http://www.w3.org/2000/svg" viewBox="0 0 69.78 71.65"><defs><style>.cls-1{fill:#fff;}</style></defs><g id="Layer_2" data-name="Layer 2"><g id="Layer_1-2" data-name="Layer 1"><path class="cls-1" d="M69.78,33.16a15.22,15.22,0,0,0-15.3-14.45h-.25L7.39,19v29.1A16.62,16.62,0,0,0,24,64.65H36.43A16.67,16.67,0,0,0,53,49h1.28A15.37,15.37,0,0,0,69.78,34.71V33.17Zm-1.93,1.48A13.46,13.46,0,0,1,54.29,47.17H51.14v1A14.64,14.64,0,0,1,36.49,62.78H24A14.64,14.64,0,0,1,9.38,48.13V20.89l42.79-.19h2.32A13.29,13.29,0,0,1,67.85,33.29v1.35Z"/><path class="cls-1" d="M55.32,24a10.32,10.32,0,0,0-3.41.19l-.77.13.07,19.15,3.66-.06a9.74,9.74,0,0,0,9.7-8.93v-.71a10.14,10.14,0,0,0-2.63-6.55A10.63,10.63,0,0,0,55.32,24Zm7.32,10.41a7.79,7.79,0,0,1-7.83,7.13H53.07L53,26a11.7,11.7,0,0,1,2.05,0,8.72,8.72,0,0,1,5.46,2.63,8.1,8.1,0,0,1,2.12,5.27v.58Z"/><path class="cls-1" d="M21.78,15.1a.66.66,0,0,0-.13,1,.94.94,0,0,0,.71.25,1.07,1.07,0,0,0,.64-.2c2.77-1.8,4.05-3.59,3.86-5.29A4.94,4.94,0,0,0,24.93,8a4.46,4.46,0,0,1-1.61-2.19c-.25-1.34.65-2.84,2.77-4.53A.62.62,0,0,0,26,.2a1.13,1.13,0,0,0-1.35,0c-2.5,2-3.59,4-3.27,5.83A5.76,5.76,0,0,0,23.45,9c.77.7,1.42,1.25,1.48,2.09.19,1.2-.9,2.55-3.15,4Z"/><path class="cls-1" d="M37.52,15.1a.66.66,0,0,0-.13,1,.94.94,0,0,0,.71.25,1.07,1.07,0,0,0,.64-.2c2.77-1.8,4-3.59,3.86-5.29A4.94,4.94,0,0,0,40.67,8a4.38,4.38,0,0,1-1.6-2.19c-.26-1.34.64-2.84,2.76-4.53a.62.62,0,0,0-.07-1,1.13,1.13,0,0,0-1.35,0c-2.5,2-3.59,4-3.27,5.83a5.76,5.76,0,0,0,2,2.94c.77.7,1.42,1.25,1.48,2.09.19,1.2-.9,2.55-3.15,4Z"/><path class="cls-1" d="M52.24,57.39a.94.94,0,1,0-.33,1.86c8.61,1.54,10.93,3.6,10.93,4.5,0,2.5-11.57,6-30.46,6s-30.45-3.47-30.45-6c0-.71,1.54-2.32,7.32-3.73a1,1,0,1,0-.45-1.86C3,59.57,0,61.5,0,63.75c0,5.2,16.32,7.9,32.38,7.9s32.38-2.7,32.38-7.9c0-3.41-6.81-5.34-12.53-6.36Z"/></g></g></svg>