<svg xmlns="http://www.w3.org/2000/svg" viewBox="0 0 44.72 43.07"><defs><style>.cls-1,.cls-3{fill:none;}.cls-1,.cls-2{stroke:#fff;stroke-miterlimit:10;stroke-width:0.25px;}.cls-2,.cls-4{fill:#fff;}</style></defs><g id="Layer_2" data-name="Layer 2"><g id="Layer_1-2" data-name="Layer 1"><path class="cls-1" d="M4.93,40.42c-.17.29-.27.92.1,1.11s.8-.25,1-.53.27-.92-.1-1.11S5.08,40.14,4.93,40.42Z"/><path class="cls-1" d="M2.53,37.69A4.11,4.11,0,0,0,4,37.25a5,5,0,0,1,2.32-.4h0a5,5,0,0,1-1.37,1.9,4.36,4.36,0,0,0-1,1.13,1.94,1.94,0,0,0,.56,2.68,2,2,0,0,0,2.55-1,2,2,0,0,0-.58-2.66l1-2c1.51-.14,6.65-.53,7.2-.56a2.51,2.51,0,0,0,1.57-1l-8.11.38L12,28.49a2.67,2.67,0,0,0-1.6,1c-.25.51-2.82,5-3.6,6.27l-2.23.08a2,2,0,0,0-2.16-1.66A2,2,0,0,0,.34,36,2,2,0,0,0,2.53,37.69Zm3.65,3.4h0a1.07,1.07,0,0,1-1.28.63c-.47-.24-.39-1-.17-1.39A1.11,1.11,0,0,1,6,39.67C6.48,39.94,6.38,40.68,6.18,41.09ZM6.92,36a.43.43,0,0,1,.58.13.4.4,0,0,1-.13.58.41.41,0,0,1-.58-.13A.43.43,0,0,1,6.92,36ZM1.27,36c0-.46.5-.85,1.14-.86.44,0,1.16.19,1.18.75s-.49.84-1.11.88C2,36.77,1.3,36.54,1.27,36Z"/><polygon class="cls-2" points="5.97 37.05 5.97 37.05 5.97 37.05 5.97 37.05"/><path class="cls-2" d="M2.52,37.91a4.7,4.7,0,0,0,1.53-.47A5.14,5.14,0,0,1,6,37.05H6a5.66,5.66,0,0,1-1.2,1.54A4.66,4.66,0,0,0,3.7,39.77a2.19,2.19,0,0,0,.66,3,2.16,2.16,0,0,0,2.83-1.11,2.22,2.22,0,0,0-.47-2.84l.88-1.7,3.32-.28c1.23-.1,2.54-.22,3.78-.29a1.85,1.85,0,0,0,.83-.27c.2-.13,1-.7.91-1l-.05-.14-7.89.38,3.71-7-.1-.12c-.23-.24-1.13.25-1.32.41a1.94,1.94,0,0,0-.61.6c-.58,1.12-1.27,2.23-1.88,3.29s-1.11,1.92-1.68,2.88L4.7,35.6A2.22,2.22,0,0,0,2.34,34,2.19,2.19,0,0,0,.13,36,2.18,2.18,0,0,0,2.52,37.91ZM.34,36a2,2,0,0,1,2-1.88,2,2,0,0,1,2.16,1.66l2.23-.08c.78-1.32,3.35-5.76,3.6-6.27a2.67,2.67,0,0,1,1.6-1L8.14,35.68l8.11-.38a2.51,2.51,0,0,1-1.57,1c-.55,0-5.69.42-7.2.56l-1,2A2,2,0,0,1,7,41.52a2,2,0,0,1-2.55,1,1.94,1.94,0,0,1-.56-2.68,4.36,4.36,0,0,1,1-1.13,5,5,0,0,0,1.37-1.9,5,5,0,0,0-2.32.4,4.11,4.11,0,0,1-1.43.44A2,2,0,0,1,.34,36Z"/><path class="cls-2" d="M2.48,36.76c.62,0,1.12-.42,1.11-.88s-.74-.78-1.18-.75c-.64,0-1.14.4-1.14.86S2,36.77,2.48,36.76Zm-1-.78c0-.41.56-.64.88-.64s1,.15,1,.55-.56.64-.88.63S1.52,36.37,1.52,36Z"/><path class="cls-2" d="M4.73,40.33c-.22.39-.3,1.15.17,1.39a1.07,1.07,0,0,0,1.28-.63h0c.2-.41.3-1.15-.19-1.42A1.11,1.11,0,0,0,4.73,40.33ZM6,41c-.15.28-.62.72-1,.53s-.27-.82-.1-1.11.6-.74,1-.53S6.14,40.69,6,41Z"/><path class="cls-2" d="M7.37,36.66a.4.4,0,0,0,.13-.58A.43.43,0,0,0,6.92,36a.43.43,0,0,0-.13.58A.41.41,0,0,0,7.37,36.66ZM7,36.13a.21.21,0,1,1-.06.29A.2.2,0,0,1,7,36.13Z"/><path class="cls-3" d="M29.07,18.52s0,0,0,0l0,0,0,0h-.2l0,0h0l0,.05a.29.29,0,0,0,0,.09h0a.11.11,0,0,0,0,.08h0l5.69,10.19V26.29Z"/><path class="cls-3" d="M21.36,1.43c.24,2.32,1.73,3.47,3.13,3.49s2.88-1.17,3.12-3.48a14.68,14.68,0,0,1-3.12.31A14.84,14.84,0,0,1,21.36,1.43Z"/><path class="cls-4" d="M28.72,18.73a.11.11,0,0,1,0-.08h0a.29.29,0,0,1,0-.09l0-.05h0l0,0H29l0,0,0,0s0,0,0,0l5.34,7.77V13.08l2,1.87a.55.55,0,0,0,.8,0l4.28-5.25a.54.54,0,0,0-.05-.74l-5.4-5A10.14,10.14,0,0,0,31.9,1.18L28.51.1A.57.57,0,0,0,28.2,0h0a.54.54,0,0,0-.28.08,13.53,13.53,0,0,1-3.45.39A13.55,13.55,0,0,1,21,.06a.51.51,0,0,0-.2,0,.48.48,0,0,0-.24.06l-3.46,1.1a10.06,10.06,0,0,0-4.17,2.75l-5.4,5a.53.53,0,0,0,0,.74l4.28,5.24a.53.53,0,0,0,.79.06l2-1.87V30a.55.55,0,0,0,.55.54H33.87a.54.54,0,0,0,.54-.54V28.93L28.72,18.74ZM24.49,4.92c-1.4,0-2.89-1.17-3.13-3.49a14.84,14.84,0,0,0,3.13.32,14.68,14.68,0,0,0,3.12-.31C27.37,3.75,25.88,4.9,24.49,4.92Z"/><path class="cls-4" d="M44.7,31.62c-.3-.7-.66-1.1-1.09-1.21-.72-.18-1.48.42-2.36,1.13A9.87,9.87,0,0,1,39,33l-4.61-6.71v2.64l2.44,4.35a8,8,0,0,1-1.73-.49,6.46,6.46,0,0,0-4.31-.36.18.18,0,0,0-.13.11.22.22,0,0,0,0,.14.22.22,0,0,0,.26.15h0a6.08,6.08,0,0,1,4.06.35,7.42,7.42,0,0,0,2.11.53l.29.53,0,0c.65,1,1.31.68,1.56.51h0a.94.94,0,0,0,.44-.67,1.38,1.38,0,0,0-.18-.75,10.13,10.13,0,0,0,2.27-1.49c.79-.63,1.48-1.18,2-1.05.3.08.56.39.81,1a.2.2,0,0,0,.27.11A.21.21,0,0,0,44.7,31.62Zm-6.14,2.7c-.2.12-.52,0-.71-.38s-.18-.69,0-.8.52,0,.71.38S38.77,34.2,38.56,34.32Z"/><path class="cls-4" d="M37.55,33.52c0,.23.37.37.74.3s.65-.3.6-.54-.37-.36-.74-.3S37.51,33.29,37.55,33.52Z"/></g></g></svg>