<svg xmlns="http://www.w3.org/2000/svg" xmlns:xlink="http://www.w3.org/1999/xlink" viewBox="0 0 109.69 84.67"><defs><style>.cls-1,.cls-2,.cls-4{fill:#fff;}.cls-1{fill-rule:evenodd;}.cls-2,.cls-3,.cls-4{stroke:#fff;stroke-miterlimit:10;}.cls-3{fill:none;stroke-width:0.75px;}.cls-4{stroke-width:0.5px;}</style></defs><g id="Layer_2" data-name="Layer 2"><g id="Layer_1-2" data-name="Layer 1"><image width="180" height="254" transform="translate(49.69) scale(0.33)" xlink:href="../../Artboard_45_3x_104dba43-92bc-44d8-a2a4-5f4e77eafaa5_180x.png"/><path class="cls-1" d="M16.4,29.76a16.53,16.53,0,0,0,3.66.37,16.42,16.42,0,0,0,3.64-.37c-.28,2.71-2,4.05-3.65,4.07s-3.37-1.36-3.65-4.07Zm8-1.44a.66.66,0,0,0-.33.09,15.26,15.26,0,0,1-4,.45A16,16,0,0,1,16,28.39a.69.69,0,0,0-.24-.05.83.83,0,0,0-.27.07l-4,1.29a11.79,11.79,0,0,0-4.88,3.22L.21,38.73a.64.64,0,0,0-.07.87l5,6.13a.64.64,0,0,0,.93.07l2.37-2.18V63.36a.64.64,0,0,0,.64.64H31a.64.64,0,0,0,.63-.64V43.61L34,45.8a.64.64,0,0,0,.93-.07l5-6.12a.63.63,0,0,0-.06-.87l-6.3-5.82a12,12,0,0,0-4.88-3.22l-4-1.26a.58.58,0,0,0-.36-.12Z"/><path class="cls-2" d="M19.83,29.07a.2.2,0,0,1-.2-.21V26.6a.2.2,0,0,1,.2-.2,2.67,2.67,0,1,0-2.66-2.66.21.21,0,0,1-.2.2.2.2,0,0,1-.2-.2,3.07,3.07,0,1,1,6.13,0,3.13,3.13,0,0,1-.83,2.09,3.18,3.18,0,0,1-2,1v2.05a.21.21,0,0,1-.21.21Z"/><rect class="cls-3" x="53.53" y="15.82" width="51.68" height="53.42"/><path class="cls-4" d="M47.87,54.57l0,0a8.73,8.73,0,0,1-6.22,3,9.73,9.73,0,0,1-6.23-2.65.15.15,0,0,1,.21-.21,9.4,9.4,0,0,0,6,2.56,8.36,8.36,0,0,0,6-2.88.15.15,0,0,1,.21,0,.17.17,0,0,1,0,.17Z"/><path class="cls-4" d="M47.7,56.79a.15.15,0,0,1-.15.09.16.16,0,0,1-.14-.16l.22-2.15-2.3.66a.14.14,0,0,1-.18-.1.14.14,0,0,1,.1-.18l2.5-.72a.12.12,0,0,1,.14,0,.12.12,0,0,1,0,.12l-.23,2.37v0Z"/></g></g></svg>