<svg xmlns="http://www.w3.org/2000/svg" xmlns:xlink="http://www.w3.org/1999/xlink" viewBox="0 0 106.99 84.67"><defs><style>.cls-1,.cls-3,.cls-4{fill:#fff;}.cls-1,.cls-2,.cls-4{stroke:#fff;stroke-miterlimit:10;}.cls-2{fill:none;stroke-width:0.75px;}.cls-3{fill-rule:evenodd;}.cls-4{stroke-width:0.5px;}</style></defs><g id="Layer_2" data-name="Layer 2"><g id="Layer_1-2" data-name="Layer 1"><path class="cls-1" d="M77.44,27.83l-14.54-4a.83.83,0,0,1-.46-.3.87.87,0,0,1-.17-.51.85.85,0,0,1,.65-.81l8.84-2.33.08,0,6.42,6.5a.88.88,0,0,1,.24.49.85.85,0,0,1-.1.54.83.83,0,0,1-.41.35.87.87,0,0,1-.55,0Zm-5.7-7.71L63,22.42a.63.63,0,0,0-.36.21.61.61,0,0,0-.13.39.66.66,0,0,0,.13.4.59.59,0,0,0,.35.22l14.53,4a.67.67,0,0,0,.42,0,.6.6,0,0,0,.31-.28.56.56,0,0,0,.09-.4.62.62,0,0,0-.2-.36Z"/><path class="cls-1" d="M71.74,20.1a.09.09,0,0,1-.07-.12L72,18.86a.09.09,0,0,1,.12-.07,1.39,1.39,0,0,0,1-.13,1.33,1.33,0,0,0,.64-.83,1.35,1.35,0,0,0-.13-1,1.42,1.42,0,0,0-.82-.64,1.35,1.35,0,0,0-1,.13,1.33,1.33,0,0,0-.64.83.15.15,0,0,1-.05.06.12.12,0,0,1-.08,0,.1.1,0,0,1-.07-.13,1.58,1.58,0,0,1,2.63-.69,1.56,1.56,0,0,1,.4,1.52A1.58,1.58,0,0,1,72.15,19l-.28,1a.1.1,0,0,1-.13.07Z"/><image width="180" height="254" transform="scale(0.33)" xlink:href="../../Artboard_45_3x_104dba43-92bc-44d8-a2a4-5f4e77eafaa5_180x.png"/><rect class="cls-2" x="3.85" y="15.82" width="51.68" height="53.42"/><path class="cls-3" d="M86.71,32.27a13.63,13.63,0,0,0,3.13.32A14,14,0,0,0,93,32.28c-.24,2.32-1.72,3.46-3.12,3.48S87,34.6,86.71,32.27Zm6.84-1.22a.5.5,0,0,0-.29.07,13.45,13.45,0,0,1-3.44.39,13.25,13.25,0,0,1-3.5-.41.65.65,0,0,0-.2,0,1.05,1.05,0,0,0-.24.06l-3.46,1.1A10.24,10.24,0,0,0,78.25,35l-5.4,5a.56.56,0,0,0,0,.75l4.29,5.24a.55.55,0,0,0,.79.06l2-1.87V61a.54.54,0,0,0,.54.55H99.21a.55.55,0,0,0,.55-.55V44.13l2,1.87a.55.55,0,0,0,.79-.06l4.29-5.24a.55.55,0,0,0-.06-.74l-5.39-5a10.28,10.28,0,0,0-4.18-2.76l-3.39-1.07a.49.49,0,0,0-.3-.1Z"/><path class="cls-4" d="M73.47,54.92a.05.05,0,0,1,0,0,8.71,8.71,0,0,1-6.22,3A9.66,9.66,0,0,1,61,55.28a.14.14,0,0,1,0-.21.15.15,0,0,1,.21,0,9.4,9.4,0,0,0,6,2.55,8.39,8.39,0,0,0,6-2.87.15.15,0,0,1,.21,0,.14.14,0,0,1,0,.17Z"/><path class="cls-4" d="M73.3,57.14a.13.13,0,0,1-.15.09.15.15,0,0,1-.13-.16l.21-2.15-2.3.67a.15.15,0,0,1-.18-.1.15.15,0,0,1,.1-.19l2.51-.72a.16.16,0,0,1,.13,0,.13.13,0,0,1,.05.13l-.23,2.36a.06.06,0,0,1,0,0Z"/></g></g></svg>