<svg xmlns="http://www.w3.org/2000/svg" viewBox="0 0 57.45 43.68"><defs><style>.cls-1{fill:none;}.cls-1,.cls-3{stroke:#fff;stroke-miterlimit:10;}.cls-2,.cls-3{fill:#fff;}.cls-2{fill-rule:evenodd;}.cls-3{stroke-width:0.5px;}</style></defs><g id="Layer_2" data-name="Layer 2"><g id="Layer_1-2" data-name="Layer 1"><path class="cls-1" d="M7.78,10.85A2.62,2.62,0,1,1,5.16,8.23a2.62,2.62,0,0,1,2.62,2.62"/><path class="cls-1" d="M6.91,14.34H3.41A2.92,2.92,0,0,0,.5,17.25V24a2.91,2.91,0,0,0,1.75,2.66V35a2.34,2.34,0,0,0,2.33,2.33H5.74A2.34,2.34,0,0,0,8.07,35v-8.4A2.91,2.91,0,0,0,9.82,24v-6.7a2.92,2.92,0,0,0-2.91-2.91Z"/><path class="cls-2" d="M26.18,9.55a12,12,0,0,0,2.55.26,12,12,0,0,0,2.54-.26c-.2,1.89-1.41,2.82-2.55,2.84s-2.35-1-2.54-2.84Zm5.57-1a.48.48,0,0,0-.23.07,10.45,10.45,0,0,1-2.81.31,10.89,10.89,0,0,1-2.85-.33.43.43,0,0,0-.36,0l-2.82.9a8.26,8.26,0,0,0-3.4,2.24l-4.4,4.06a.44.44,0,0,0-.05.61l3.5,4.27a.44.44,0,0,0,.64,0l1.66-1.52V33a.45.45,0,0,0,.44.45h15.3a.45.45,0,0,0,.45-.45V19.21l1.65,1.53a.45.45,0,0,0,.65,0l3.5-4.27a.46.46,0,0,0,0-.61l-4.4-4.06a8.33,8.33,0,0,0-3.4-2.24L32,8.63a.44.44,0,0,0-.25-.08Z"/><path class="cls-1" d="M54.91,10.85a2.62,2.62,0,1,1-2.62-2.62,2.62,2.62,0,0,1,2.62,2.62"/><path class="cls-1" d="M54,14.34H50.54a2.92,2.92,0,0,0-2.91,2.91V24a2.91,2.91,0,0,0,1.75,2.66V35a2.33,2.33,0,0,0,2.33,2.33h1.16A2.34,2.34,0,0,0,55.2,35v-8.4A2.93,2.93,0,0,0,57,24v-6.7A2.92,2.92,0,0,0,54,14.34Z"/><path class="cls-3" d="M41,37.49a.15.15,0,0,1-.06.09c-3.78,3.87-7.91,5.84-12.26,5.85-7,0-12.22-5.16-12.27-5.21a.3.3,0,0,1,0-.41.28.28,0,0,1,.41,0c.05,0,5.09,5.06,11.86,5,4.19,0,8.18-1.92,11.85-5.67a.29.29,0,0,1,.41,0,.28.28,0,0,1,.06.32Z"/><path class="cls-3" d="M40.65,41.88a.29.29,0,0,1-.56-.14l.42-4.23L36,38.81a.29.29,0,1,1-.16-.55l4.94-1.43a.27.27,0,0,1,.27.06.29.29,0,0,1,.1.25l-.46,4.66a.19.19,0,0,1,0,.08Z"/><path class="cls-3" d="M16.4,6.19a.15.15,0,0,1,.06-.09C20.24,2.23,24.36.26,28.71.25c7,0,12.23,5.16,12.28,5.21a.3.3,0,0,1,0,.41.29.29,0,0,1-.42,0S35.49.81,28.72.83c-4.19,0-8.18,1.92-11.85,5.67a.29.29,0,0,1-.41,0,.28.28,0,0,1-.06-.32Z"/><path class="cls-3" d="M16.74,1.8a.29.29,0,0,1,.56.14l-.42,4.23,4.53-1.3a.29.29,0,0,1,.36.2.3.3,0,0,1-.2.36L16.63,6.85a.27.27,0,0,1-.27-.06.29.29,0,0,1-.1-.25l.46-4.66a.24.24,0,0,1,0-.08Z"/></g></g></svg>