<svg xmlns="http://www.w3.org/2000/svg" viewBox="0 0 34.81 51.32"><defs><style>.cls-1{fill:none;}.cls-1,.cls-3{stroke:#fff;stroke-miterlimit:10;}.cls-2,.cls-3{fill:#fff;}.cls-2{fill-rule:evenodd;}.cls-3{stroke-width:0.75px;}</style></defs><g id="Layer_2" data-name="Layer 2"><g id="Layer_1-2" data-name="Layer 1"><path class="cls-1" d="M22.42,5A4.53,4.53,0,1,1,17.89.5,4.53,4.53,0,0,1,22.42,5"/><path class="cls-1" d="M20.91,11.07h-6a5,5,0,0,0-5,5V27.67a5.06,5.06,0,0,0,3,4.61V46.79a4,4,0,0,0,4,4h2a4,4,0,0,0,4-4V32.28a5.06,5.06,0,0,0,3-4.61V16.1a5,5,0,0,0-5-5Z"/><path class="cls-2" d="M9.34,19.74h2.45v9.5a.34.34,0,0,0,.34.34H23.78a.34.34,0,0,0,.34-.34l.09-9.5h2.23s-.14-3.6-.27-3.72l-1-3.35a5.65,5.65,0,0,0-2.58-1.31l-2.11-.67-5.52.38-1.39-.16c-1.18.38-3,2.93-3.82,3.68"/><line class="cls-3" x1="3.52" y1="13.42" x2="0.17" y2="11.68"/><line class="cls-3" x1="7.41" y1="9.05" x2="5.19" y2="6"/><line class="cls-3" x1="4.27" y1="18.19" x2="1.04" y2="20.13"/><line class="cls-3" x1="31.3" y1="13.42" x2="34.64" y2="11.68"/><line class="cls-3" x1="27.4" y1="9.05" x2="29.62" y2="6"/><line class="cls-3" x1="30.54" y1="18.19" x2="33.77" y2="20.13"/></g></g></svg>