<svg xmlns="http://www.w3.org/2000/svg" viewBox="0 0 55.76 78.83"><defs><style>.cls-1{fill:#fff;}</style></defs><g id="Layer_2" data-name="Layer 2"><g id="Layer_1-2" data-name="Layer 1"><path class="cls-1" d="M52.87,78.83A2.88,2.88,0,0,0,55.76,76V2.88A2.88,2.88,0,0,0,52.87,0h-50A2.88,2.88,0,0,0,0,2.88V76a2.88,2.88,0,0,0,2.88,2.88ZM1.92,2.88a1,1,0,0,1,1-1h50a1,1,0,0,1,1,1v12.5H1.92ZM1.92,76V17.3H53.84V76a1,1,0,0,1-1,1h-50a1,1,0,0,1-1-1Z"/><path class="cls-1" d="M27.88,71.14A20.19,20.19,0,1,0,7.69,51,20.22,20.22,0,0,0,27.88,71.14Zm0-38.45A18.27,18.27,0,1,1,9.61,51,18.28,18.28,0,0,1,27.88,32.69Z"/><path class="cls-1" d="M27.88,65.37A14.42,14.42,0,1,0,13.46,51,14.43,14.43,0,0,0,27.88,65.37Zm0-26.92A12.5,12.5,0,1,1,15.38,51,12.53,12.53,0,0,1,27.88,38.45Z"/><path class="cls-1" d="M27.88,59.6A8.66,8.66,0,0,0,36.53,51a1,1,0,1,0-1.92,0,6.74,6.74,0,0,1-6.73,6.73,1,1,0,1,0,0,1.92Z"/><path class="cls-1" d="M47.11,5.77A2.89,2.89,0,1,0,50,8.65,2.88,2.88,0,0,0,47.11,5.77Zm0,3.84a1,1,0,1,1,1-1A.95.95,0,0,1,47.11,9.61Z"/><path class="cls-1" d="M37.49,5.77a2.89,2.89,0,1,0,2.89,2.88A2.88,2.88,0,0,0,37.49,5.77Zm0,3.84a1,1,0,1,1,1-1A.95.95,0,0,1,37.49,9.61Z"/><path class="cls-1" d="M12.5,5.69H6.73a1,1,0,0,0,0,1.92H12.5a1,1,0,1,0,0-1.92Z"/><path class="cls-1" d="M12.5,9.58H6.73a1,1,0,1,0,0,1.92H12.5a1,1,0,1,0,0-1.92Z"/></g></g></svg>